<svg width="41" height="41" viewBox="0 0 41 41" fill="none" xmlns="http://www.w3.org/2000/svg">
<path d="M20.0514 10.5C18.8153 10.5 17.6069 10.8666 16.5791 11.5533C15.5513 12.2401 14.7502 13.2162 14.2771 14.3582C13.8041 15.5003 13.6803 16.7569 13.9215 17.9693C14.1626 19.1817 14.7579 20.2953 15.632 21.1694C16.5061 22.0435 17.6197 22.6388 18.8321 22.8799C20.0445 23.1211 21.3011 22.9973 22.4432 22.5243C23.5852 22.0512 24.5613 21.2501 25.2481 20.2223C25.9348 19.1945 26.3014 17.9861 26.3014 16.75C26.3014 15.0924 25.6429 13.5027 24.4708 12.3306C23.2987 11.1585 21.709 10.5 20.0514 10.5ZM20.0514 20.5C19.3097 20.5 18.5847 20.2801 17.968 19.868C17.3513 19.456 16.8707 18.8703 16.5868 18.1851C16.303 17.4998 16.2288 16.7458 16.3735 16.0184C16.5181 15.291 16.8753 14.6228 17.3997 14.0983C17.9242 13.5739 18.5924 13.2167 19.3198 13.0721C20.0472 12.9274 20.8012 13.0016 21.4865 13.2855C22.1717 13.5693 22.7574 14.0499 23.1694 14.6666C23.5815 15.2833 23.8014 16.0083 23.8014 16.75C23.8003 17.7442 23.4048 18.6974 22.7018 19.4004C21.9988 20.1034 21.0456 20.4989 20.0514 20.5Z" fill="white"/>
<path d="M20.0514 3C16.5902 3 13.2068 4.02636 10.3289 5.94928C7.45106 7.87221 5.20804 10.6053 3.88351 13.803C2.55897 17.0007 2.21242 20.5194 2.88766 23.9141C3.5629 27.3088 5.22961 30.427 7.67703 32.8744C10.1245 35.3218 13.2427 36.9885 16.6373 37.6637C20.032 38.339 23.5507 37.9924 26.7484 36.6679C29.9461 35.3434 32.6792 33.1003 34.6021 30.2225C36.525 27.3446 37.5514 23.9612 37.5514 20.5C37.5462 15.8603 35.7008 11.4122 32.42 8.13141C29.1392 4.85065 24.6911 3.00523 20.0514 3ZM12.5514 33.4706V31.75C12.5525 30.7558 12.9479 29.8026 13.651 29.0996C14.354 28.3965 15.3072 28.0011 16.3014 28H23.8014C24.7956 28.0011 25.7488 28.3965 26.4518 29.0996C27.1549 29.8026 27.5503 30.7558 27.5514 31.75V33.4706C25.2754 34.7997 22.6871 35.5 20.0514 35.5C17.4158 35.5 14.8274 34.7997 12.5514 33.4706ZM30.042 31.6573C30.0172 30.0176 29.3491 28.4533 28.1817 27.3015C27.0144 26.1498 25.4413 25.5028 23.8014 25.5H16.3014C14.6615 25.5028 13.0884 26.1498 11.9211 27.3015C10.7537 28.4533 10.0856 30.0176 10.0608 31.6573C7.79398 29.6332 6.19544 26.9683 5.47682 24.0156C4.7582 21.0628 4.9534 17.9614 6.03657 15.1221C7.11975 12.2827 9.0398 9.83933 11.5425 8.11546C14.0452 6.39158 17.0125 5.46853 20.0514 5.46853C23.0904 5.46853 26.0576 6.39158 28.5603 8.11546C31.063 9.83933 32.9831 12.2827 34.0662 15.1221C35.1494 17.9614 35.3446 21.0628 34.626 24.0156C33.9074 26.9683 32.3088 29.6332 30.042 31.6573Z" fill="white"/>
</svg>
