<?xml version="1.0" encoding="utf-8"?>
<!-- Generator: Adobe Illustrator 28.1.0, SVG Export Plug-In . SVG Version: 6.00 Build 0)  -->
<svg version="1.1" id="Capa_1" xmlns="http://www.w3.org/2000/svg" xmlns:xlink="http://www.w3.org/1999/xlink" x="0px" y="0px"
	 viewBox="0 0 33 35" style="enable-background:new 0 0 33 35;" xml:space="preserve">
<style type="text/css">
	.st0{fill:#FFF852;}
</style>
<path class="st0" d="M10.7,3.9c-0.5,0-1,0.2-1.4,0.6C8.9,4.8,8.7,5.3,8.7,5.8s0.2,1,0.6,1.4c0.4,0.4,0.9,0.6,1.4,0.6
	c0.5,0,1-0.2,1.4-0.6c0.4-0.4,0.6-0.9,0.6-1.4s-0.2-1-0.6-1.4C11.7,4.1,11.2,3.9,10.7,3.9z M5.2,3.9c0.4-1.1,1.1-2.1,2.1-2.8
	C8.3,0.4,9.5,0,10.7,0s2.4,0.4,3.4,1.1c1,0.7,1.7,1.7,2.1,2.8h13.9c0.5,0,1,0.2,1.4,0.6c0.4,0.4,0.6,0.9,0.6,1.4s-0.2,1-0.6,1.4
	c-0.4,0.4-0.9,0.6-1.4,0.6H16.2C15.8,8.9,15,9.9,14,10.6c-1,0.7-2.2,1.1-3.4,1.1s-2.4-0.4-3.4-1.1c-1-0.7-1.7-1.7-2.1-2.8H2.9
	c-0.5,0-1-0.2-1.4-0.6C1.2,6.8,0.9,6.4,0.9,5.8s0.2-1,0.6-1.4c0.4-0.4,0.9-0.6,1.4-0.6H5.2z M22.3,15.6c-0.5,0-1,0.2-1.4,0.6
	c-0.4,0.4-0.6,0.9-0.6,1.4s0.2,1,0.6,1.4c0.4,0.4,0.9,0.6,1.4,0.6c0.5,0,1-0.2,1.4-0.6c0.4-0.4,0.6-0.9,0.6-1.4s-0.2-1-0.6-1.4
	C23.3,15.8,22.8,15.6,22.3,15.6z M16.8,15.6c0.4-1.1,1.1-2.1,2.1-2.8c1-0.7,2.2-1.1,3.4-1.1c1.2,0,2.4,0.4,3.4,1.1
	c1,0.7,1.7,1.7,2.1,2.8h2.3c0.5,0,1,0.2,1.4,0.6c0.4,0.4,0.6,0.9,0.6,1.4s-0.2,1-0.6,1.4c-0.4,0.4-0.9,0.6-1.4,0.6h-2.3
	c-0.4,1.1-1.1,2.1-2.1,2.8c-1,0.7-2.2,1.1-3.4,1.1c-1.2,0-2.4-0.4-3.4-1.1c-1-0.7-1.7-1.7-2.1-2.8H2.9c-0.5,0-1-0.2-1.4-0.6
	c-0.4-0.4-0.6-0.9-0.6-1.4s0.2-1,0.6-1.4c0.4-0.4,0.9-0.6,1.4-0.6H16.8z M10.7,27.2c-0.5,0-1,0.2-1.4,0.6c-0.4,0.4-0.6,0.9-0.6,1.4
	c0,0.5,0.2,1,0.6,1.4c0.4,0.4,0.9,0.6,1.4,0.6c0.5,0,1-0.2,1.4-0.6c0.4-0.4,0.6-0.9,0.6-1.4c0-0.5-0.2-1-0.6-1.4
	C11.7,27.4,11.2,27.2,10.7,27.2z M5.2,27.2c0.4-1.1,1.1-2.1,2.1-2.8c1-0.7,2.2-1.1,3.4-1.1s2.4,0.4,3.4,1.1c1,0.7,1.7,1.7,2.1,2.8
	h13.9c0.5,0,1,0.2,1.4,0.6c0.4,0.4,0.6,0.9,0.6,1.4c0,0.5-0.2,1-0.6,1.4c-0.4,0.4-0.9,0.6-1.4,0.6H16.2c-0.4,1.1-1.1,2.1-2.1,2.8
	c-1,0.7-2.2,1.1-3.4,1.1s-2.4-0.4-3.4-1.1c-1-0.7-1.7-1.7-2.1-2.8H2.9c-0.5,0-1-0.2-1.4-0.6c-0.4-0.4-0.6-0.9-0.6-1.4
	c0-0.5,0.2-1,0.6-1.4c0.4-0.4,0.9-0.6,1.4-0.6H5.2z"/>
</svg>
