<?xml version="1.0" encoding="utf-8"?>
<!-- Generator: Adobe Illustrator 28.1.0, SVG Export Plug-In . SVG Version: 6.00 Build 0)  -->
<svg version="1.1" id="Capa_1" xmlns="http://www.w3.org/2000/svg" xmlns:xlink="http://www.w3.org/1999/xlink" x="0px" y="0px"
	 viewBox="0 0 37 33" style="enable-background:new 0 0 37 33;" xml:space="preserve">
<style type="text/css">
	.st0{fill:none;stroke:#FFF852;stroke-width:3;}
</style>
<path class="st0" d="M27.6,11.1V9.3c0-3.4,0-5.1-1.1-6.2C25.5,2,23.8,2,20.4,2h-3.6c-3.4,0-5.1,0-6.2,1.1C9.5,4.2,9.5,5.9,9.5,9.3
	v1.8 M2.5,19.3c-0.5-3.8-0.8-5.7,0.3-7c1.1-1.2,3-1.2,6.9-1.2h17.8c3.9,0,5.8,0,6.9,1.2c1.1,1.2,0.8,3.1,0.3,7l-0.7,5.4
	c-0.4,3-0.6,4.5-1.6,5.4c-1,0.9-2.5,0.9-5.5,0.9H10.4c-3,0-4.5,0-5.5-0.9c-1-0.9-1.2-2.4-1.6-5.4L2.5,19.3L2.5,19.3z"/>
</svg>
