<svg width="33" height="35" viewBox="0 0 33 35" fill="none" xmlns="http://www.w3.org/2000/svg">
<path d="M10.6683 3.89259C10.1527 3.89259 9.6583 4.0974 9.29375 4.46195C8.92919 4.82651 8.72439 5.32095 8.72439 5.83651C8.72439 6.35207 8.92919 6.84651 9.29375 7.21106C9.6583 7.57562 10.1527 7.78042 10.6683 7.78042C11.1839 7.78042 11.6783 7.57562 12.0429 7.21106C12.4074 6.84651 12.6122 6.35207 12.6122 5.83651C12.6122 5.32095 12.4074 4.82651 12.0429 4.46195C11.6783 4.0974 11.1839 3.89259 10.6683 3.89259ZM5.16703 3.89259C5.56864 2.75437 6.31343 1.76874 7.29872 1.07156C8.28402 0.37439 9.4613 0 10.6683 0C11.8753 0 13.0526 0.37439 14.0379 1.07156C15.0232 1.76874 15.768 2.75437 16.1696 3.89259H30.1075C30.623 3.89259 31.1175 4.0974 31.482 4.46195C31.8466 4.82651 32.0514 5.32095 32.0514 5.83651C32.0514 6.35207 31.8466 6.84651 31.482 7.21106C31.1175 7.57562 30.623 7.78042 30.1075 7.78042H16.1696C15.768 8.91865 15.0232 9.90428 14.0379 10.6015C13.0526 11.2986 11.8753 11.673 10.6683 11.673C9.4613 11.673 8.28402 11.2986 7.29872 10.6015C6.31343 9.90428 5.56864 8.91865 5.16703 7.78042H2.89265C2.37709 7.78042 1.88264 7.57562 1.51809 7.21106C1.15354 6.84651 0.94873 6.35207 0.94873 5.83651C0.94873 5.32095 1.15354 4.82651 1.51809 4.46195C1.88264 4.0974 2.37709 3.89259 2.89265 3.89259H5.16703ZM22.3318 15.5561C21.8162 15.5561 21.3218 15.7609 20.9572 16.1254C20.5927 16.49 20.3879 16.9844 20.3879 17.5C20.3879 18.0156 20.5927 18.51 20.9572 18.8746C21.3218 19.2391 21.8162 19.4439 22.3318 19.4439C22.8473 19.4439 23.3418 19.2391 23.7063 18.8746C24.0709 18.51 24.2757 18.0156 24.2757 17.5C24.2757 16.9844 24.0709 16.49 23.7063 16.1254C23.3418 15.7609 22.8473 15.5561 22.3318 15.5561ZM16.8305 15.5561C17.2321 14.4179 17.9769 13.4322 18.9622 12.7351C19.9475 12.0379 21.1248 11.6635 22.3318 11.6635C23.5388 11.6635 24.7161 12.0379 25.7014 12.7351C26.6867 13.4322 27.4315 14.4179 27.8331 15.5561H30.1075C30.623 15.5561 31.1175 15.7609 31.482 16.1254C31.8466 16.49 32.0514 16.9844 32.0514 17.5C32.0514 18.0156 31.8466 18.51 31.482 18.8746C31.1175 19.2391 30.623 19.4439 30.1075 19.4439H27.8331C27.4315 20.5821 26.6867 21.5678 25.7014 22.2649C24.7161 22.9621 23.5388 23.3365 22.3318 23.3365C21.1248 23.3365 19.9475 22.9621 18.9622 22.2649C17.9769 21.5678 17.2321 20.5821 16.8305 19.4439H2.89265C2.37709 19.4439 1.88264 19.2391 1.51809 18.8746C1.15354 18.51 0.94873 18.0156 0.94873 17.5C0.94873 16.9844 1.15354 16.49 1.51809 16.1254C1.88264 15.7609 2.37709 15.5561 2.89265 15.5561H16.8305ZM10.6683 27.2196C10.1527 27.2196 9.6583 27.4244 9.29375 27.7889C8.92919 28.1535 8.72439 28.6479 8.72439 29.1635C8.72439 29.679 8.92919 30.1735 9.29375 30.538C9.6583 30.9026 10.1527 31.1074 10.6683 31.1074C11.1839 31.1074 11.6783 30.9026 12.0429 30.538C12.4074 30.1735 12.6122 29.679 12.6122 29.1635C12.6122 28.6479 12.4074 28.1535 12.0429 27.7889C11.6783 27.4244 11.1839 27.2196 10.6683 27.2196ZM5.16703 27.2196C5.56864 26.0813 6.31343 25.0957 7.29872 24.3985C8.28402 23.7014 9.4613 23.327 10.6683 23.327C11.8753 23.327 13.0526 23.7014 14.0379 24.3985C15.0232 25.0957 15.768 26.0813 16.1696 27.2196H30.1075C30.623 27.2196 31.1175 27.4244 31.482 27.7889C31.8466 28.1535 32.0514 28.6479 32.0514 29.1635C32.0514 29.679 31.8466 30.1735 31.482 30.538C31.1175 30.9026 30.623 31.1074 30.1075 31.1074H16.1696C15.768 32.2456 15.0232 33.2313 14.0379 33.9284C13.0526 34.6256 11.8753 35 10.6683 35C9.4613 35 8.28402 34.6256 7.29872 33.9284C6.31343 33.2313 5.56864 32.2456 5.16703 31.1074H2.89265C2.37709 31.1074 1.88264 30.9026 1.51809 30.538C1.15354 30.1735 0.94873 29.679 0.94873 29.1635C0.94873 28.6479 1.15354 28.1535 1.51809 27.7889C1.88264 27.4244 2.37709 27.2196 2.89265 27.2196H5.16703Z" fill="white"/>
</svg>
