<svg width="37" height="33" viewBox="0 0 37 33" fill="none" xmlns="http://www.w3.org/2000/svg">
<path d="M27.5873 11.0785V9.27131C27.5873 5.86303 27.5873 4.1607 26.5284 3.10171C25.4694 2.04272 23.767 2.04272 20.3588 2.04272H16.7445C13.3362 2.04272 11.6339 2.04272 10.5749 3.10171C9.51589 4.1607 9.51589 5.86303 9.51589 9.27131V11.0785M2.50417 19.2829C1.9801 15.4644 1.72168 13.5542 2.80235 12.3163C3.88122 11.0785 5.80944 11.0785 9.66408 11.0785H27.4373C31.2938 11.0785 33.2202 11.0785 34.3009 12.3163C35.3816 13.5542 35.1213 15.4644 34.6009 19.2829L33.8599 24.7043C33.4551 27.6861 33.2509 29.1752 32.2299 30.0661C31.2089 30.9571 29.7053 30.9571 26.7 30.9571H10.4032C7.39611 30.9571 5.89257 30.9571 4.87153 30.0661C3.84869 29.1734 3.64629 27.6843 3.23968 24.7061L2.50056 19.2847L2.50417 19.2829Z" stroke="white" stroke-width="3"/>
</svg>
