<?xml version="1.0" encoding="utf-8"?>
<!-- Generator: Adobe Illustrator 28.1.0, SVG Export Plug-In . SVG Version: 6.00 Build 0)  -->
<svg version="1.1" id="Capa_1" xmlns="http://www.w3.org/2000/svg" xmlns:xlink="http://www.w3.org/1999/xlink" x="0px" y="0px"
	 viewBox="0 0 41 41" style="enable-background:new 0 0 41 41;" xml:space="preserve">
<style type="text/css">
	.st0{fill:#FFF852;}
</style>
<path class="st0" d="M20.1,10.5c-1.2,0-2.4,0.4-3.5,1.1c-1,0.7-1.8,1.7-2.3,2.8c-0.5,1.1-0.6,2.4-0.4,3.6c0.2,1.2,0.8,2.3,1.7,3.2
	c0.9,0.9,2,1.5,3.2,1.7c1.2,0.2,2.5,0.1,3.6-0.4c1.1-0.5,2.1-1.3,2.8-2.3c0.7-1,1.1-2.2,1.1-3.5c0-1.7-0.7-3.2-1.8-4.4
	S21.7,10.5,20.1,10.5z M20.1,20.5c-0.7,0-1.5-0.2-2.1-0.6c-0.6-0.4-1.1-1-1.4-1.7c-0.3-0.7-0.4-1.4-0.2-2.2c0.1-0.7,0.5-1.4,1-1.9
	c0.5-0.5,1.2-0.9,1.9-1c0.7-0.1,1.5-0.1,2.2,0.2c0.7,0.3,1.3,0.8,1.7,1.4c0.4,0.6,0.6,1.3,0.6,2.1c0,1-0.4,1.9-1.1,2.7
	C22,20.1,21,20.5,20.1,20.5z"/>
<path class="st0" d="M20.1,3c-3.5,0-6.8,1-9.7,2.9c-2.9,1.9-5.1,4.7-6.4,7.9c-1.3,3.2-1.7,6.7-1,10.1s2.3,6.5,4.8,9
	c2.4,2.4,5.6,4.1,9,4.8c3.4,0.7,6.9,0.3,10.1-1s5.9-3.6,7.9-6.4c1.9-2.9,2.9-6.3,2.9-9.7c0-4.6-1.9-9.1-5.1-12.4
	C29.1,4.9,24.7,3,20.1,3z M12.6,33.5v-1.7c0-1,0.4-1.9,1.1-2.7c0.7-0.7,1.7-1.1,2.7-1.1h7.5c1,0,1.9,0.4,2.7,1.1
	c0.7,0.7,1.1,1.7,1.1,2.7v1.7c-2.3,1.3-4.9,2-7.5,2C17.4,35.5,14.8,34.8,12.6,33.5z M30,31.7c0-1.6-0.7-3.2-1.9-4.4
	c-1.2-1.2-2.7-1.8-4.4-1.8h-7.5c-1.6,0-3.2,0.6-4.4,1.8c-1.2,1.2-1.8,2.7-1.9,4.4c-2.3-2-3.9-4.7-4.6-7.6C4.8,21.1,5,18,6,15.1
	c1.1-2.8,3-5.3,5.5-7C14,6.4,17,5.5,20.1,5.5c3,0,6,0.9,8.5,2.6c2.5,1.7,4.4,4.2,5.5,7c1.1,2.8,1.3,5.9,0.6,8.9
	C33.9,27,32.3,29.6,30,31.7z"/>
</svg>
